<?xml version="1.0" encoding="UTF-8" standalone="no"?>
<!DOCTYPE svg PUBLIC "-//W3C//DTD SVG 1.1//EN"
 "http://www.w3.org/Graphics/SVG/1.1/DTD/svg11.dtd">
<!-- Generated by graphviz version 14.1.1 (20251213.1925)
 -->
<!-- Title: CircaNotificationAuthority Pages: 1 -->
<svg width="1369pt" height="736pt"
 viewBox="0.00 0.00 1369.00 736.00" xmlns="http://www.w3.org/2000/svg" xmlns:xlink="http://www.w3.org/1999/xlink">
<g id="graph0" class="graph" transform="scale(1 1) rotate(0) translate(32.4 703.97)">
<title>CircaNotificationAuthority</title>
<polygon fill="#ffffff" stroke="none" points="-32.4,32.4 -32.4,-703.97 1336.57,-703.97 1336.57,32.4 -32.4,32.4"/>
<text xml:space="preserve" text-anchor="middle" x="652.09" y="-647.62" font-family="Helvetica,sans-Serif" font-size="21.00">Circa notifications: committed event, canonical contact and delivery authority</text>
<!-- customer -->
<g id="node1" class="node">
<title>customer</title>
<path fill="#dcfce7" stroke="#64748b" d="M417.05,-641.82C417.05,-641.82 112.13,-641.82 112.13,-641.82 106.12,-641.82 100.13,-635.82 100.13,-629.82 100.13,-629.82 100.13,-608.1 100.13,-608.1 100.13,-602.1 106.13,-596.1 112.13,-596.1 112.13,-596.1 417.05,-596.1 417.05,-596.1 423.05,-596.1 429.05,-602.1 429.05,-608.1 429.05,-608.1 429.05,-629.82 429.05,-629.82 429.05,-635.82 423.05,-641.82 417.05,-641.82"/>
<text xml:space="preserve" text-anchor="middle" x="264.59" y="-620.11" font-family="Helvetica,sans-Serif" font-size="13.00">Customer self journey</text>
<text xml:space="preserve" text-anchor="middle" x="264.59" y="-606.61" font-family="Helvetica,sans-Serif" font-size="13.00">Native Customer or Employee&#45;backed participation</text>
</g>
<!-- contact -->
<g id="node2" class="node">
<title>contact</title>
<path fill="#ccfbf1" stroke="#64748b" d="M400.55,-536.1C400.55,-536.1 128.62,-536.1 128.62,-536.1 122.62,-536.1 116.63,-530.1 116.63,-524.1 116.63,-524.1 116.63,-488.88 116.63,-488.88 116.63,-482.88 122.63,-476.88 128.63,-476.88 128.63,-476.88 400.55,-476.88 400.55,-476.88 406.55,-476.88 412.55,-482.88 412.55,-488.88 412.55,-488.88 412.55,-524.1 412.55,-524.1 412.55,-530.1 406.55,-536.1 400.55,-536.1"/>
<text xml:space="preserve" text-anchor="middle" x="264.59" y="-514.39" font-family="Helvetica,sans-Serif" font-size="13.00">Profile Contact owner</text>
<text xml:space="preserve" text-anchor="middle" x="264.59" y="-500.89" font-family="Helvetica,sans-Serif" font-size="13.00">Canonical association + exact held proof</text>
<text xml:space="preserve" text-anchor="middle" x="264.59" y="-487.39" font-family="Helvetica,sans-Serif" font-size="13.00">Separate transactional consent / suppression</text>
</g>
<!-- customer&#45;&gt;contact -->
<g id="edge1" class="edge">
<title>customer&#45;&gt;contact</title>
<path fill="none" stroke="#475569" d="M264.59,-595.6C264.59,-580.98 264.59,-561.51 264.59,-544.59"/>
<polygon fill="#475569" stroke="#475569" points="267.04,-545.04 264.59,-538.04 262.14,-545.04 267.04,-545.04"/>
<text xml:space="preserve" text-anchor="middle" x="345.59" y="-561.65" font-family="Helvetica,sans-Serif" font-size="11.00">Explicit self proof and preferences</text>
</g>
<!-- challenge -->
<g id="node3" class="node">
<title>challenge</title>
<path fill="#ffe4e6" stroke="#64748b" d="M271.17,-416.88C271.17,-416.88 12,-416.88 12,-416.88 6,-416.88 0,-410.88 0,-404.88 0,-404.88 0,-369.66 0,-369.66 0,-363.66 6,-357.66 12,-357.66 12,-357.66 271.17,-357.66 271.17,-357.66 277.17,-357.66 283.17,-363.66 283.17,-369.66 283.17,-369.66 283.17,-404.88 283.17,-404.88 283.17,-410.88 277.17,-416.88 271.17,-416.88"/>
<text xml:space="preserve" text-anchor="middle" x="141.59" y="-395.17" font-family="Helvetica,sans-Serif" font-size="13.00">Communication verification owner</text>
<text xml:space="preserve" text-anchor="middle" x="141.59" y="-381.67" font-family="Helvetica,sans-Serif" font-size="13.00">ISSUE / VERIFY / CONSUME</text>
<text xml:space="preserve" text-anchor="middle" x="141.59" y="-368.17" font-family="Helvetica,sans-Serif" font-size="13.00">Receipt repairs only original held command</text>
</g>
<!-- contact&#45;&gt;challenge -->
<g id="edge2" class="edge">
<title>contact&#45;&gt;challenge</title>
<path fill="none" stroke="#475569" d="M130.36,-476.49C120.74,-470.09 112.16,-462.32 105.34,-452.88 98.85,-443.9 100.82,-433.66 106.31,-424.01"/>
<polygon fill="#475569" stroke="#475569" points="108.21,-425.58 110.01,-418.38 104.12,-422.88 108.21,-425.58"/>
<text xml:space="preserve" text-anchor="middle" x="169.46" y="-442.43" font-family="Helvetica,sans-Serif" font-size="11.00">Authenticated private RPC</text>
</g>
<!-- recipient -->
<g id="node6" class="node">
<title>recipient</title>
<path fill="#ccfbf1" stroke="#64748b" d="M615.55,-416.88C615.55,-416.88 355.62,-416.88 355.62,-416.88 349.62,-416.88 343.62,-410.88 343.62,-404.88 343.62,-404.88 343.62,-369.66 343.62,-369.66 343.62,-363.66 349.62,-357.66 355.62,-357.66 355.62,-357.66 615.55,-357.66 615.55,-357.66 621.55,-357.66 627.55,-363.66 627.55,-369.66 627.55,-369.66 627.55,-404.88 627.55,-404.88 627.55,-410.88 621.55,-416.88 615.55,-416.88"/>
<text xml:space="preserve" text-anchor="middle" x="485.59" y="-395.17" font-family="Helvetica,sans-Serif" font-size="13.00">Profile private recipient endpoint</text>
<text xml:space="preserve" text-anchor="middle" x="485.59" y="-381.67" font-family="Helvetica,sans-Serif" font-size="13.00">Independently proves financial source</text>
<text xml:space="preserve" text-anchor="middle" x="485.59" y="-368.17" font-family="Helvetica,sans-Serif" font-size="13.00">Resolves current verified contact + consent</text>
</g>
<!-- contact&#45;&gt;recipient -->
<g id="edge8" class="edge">
<title>contact&#45;&gt;recipient</title>
<path fill="none" stroke="#475569" d="M397.52,-476.47C412.79,-470.09 427.54,-462.32 440.59,-452.88 450.93,-445.39 459.72,-434.76 466.71,-424.28"/>
<polygon fill="#475569" stroke="#475569" points="468.78,-425.6 470.45,-418.37 464.64,-422.98 468.78,-425.6"/>
<text xml:space="preserve" text-anchor="middle" x="555.27" y="-442.43" font-family="Helvetica,sans-Serif" font-size="11.00">Current verification / consent / suppression</text>
</g>
<!-- challenge&#45;&gt;contact -->
<g id="edge3" class="edge">
<title>challenge&#45;&gt;contact</title>
<path fill="none" stroke="#475569" d="M206.29,-417.15C216.97,-423.87 227.25,-431.78 235.59,-440.88 242.86,-448.82 248.55,-458.89 252.89,-468.71"/>
<polygon fill="#475569" stroke="#475569" points="250.58,-469.53 255.51,-475.08 255.11,-467.67 250.58,-469.53"/>
<text xml:space="preserve" text-anchor="middle" x="339.36" y="-442.43" font-family="Helvetica,sans-Serif" font-size="11.00">Bound consumed evidence, not consent</text>
</g>
<!-- finance -->
<g id="node4" class="node">
<title>finance</title>
<path fill="#e0f2fe" stroke="#64748b" d="M1189.92,-416.88C1189.92,-416.88 905.25,-416.88 905.25,-416.88 899.25,-416.88 893.25,-410.88 893.25,-404.88 893.25,-404.88 893.25,-369.66 893.25,-369.66 893.25,-363.66 899.25,-357.66 905.25,-357.66 905.25,-357.66 1189.92,-357.66 1189.92,-357.66 1195.92,-357.66 1201.92,-363.66 1201.92,-369.66 1201.92,-369.66 1201.92,-404.88 1201.92,-404.88 1201.92,-410.88 1195.92,-416.88 1189.92,-416.88"/>
<text xml:space="preserve" text-anchor="middle" x="1047.59" y="-395.17" font-family="Helvetica,sans-Serif" font-size="13.00">Commerce owning result</text>
<text xml:space="preserve" text-anchor="middle" x="1047.59" y="-381.67" font-family="Helvetica,sans-Serif" font-size="13.00">Committed purchase / refund</text>
<text xml:space="preserve" text-anchor="middle" x="1047.59" y="-368.17" font-family="Helvetica,sans-Serif" font-size="13.00">Stored order, buyer and original source revision</text>
</g>
<!-- digital -->
<g id="node5" class="node">
<title>digital</title>
<path fill="#e0f2fe" stroke="#64748b" d="M1006.3,-297.66C1006.3,-297.66 762.88,-297.66 762.88,-297.66 756.88,-297.66 750.88,-291.66 750.88,-285.66 750.88,-285.66 750.88,-250.44 750.88,-250.44 750.88,-244.44 756.88,-238.44 762.88,-238.44 762.88,-238.44 1006.3,-238.44 1006.3,-238.44 1012.3,-238.44 1018.3,-244.44 1018.3,-250.44 1018.3,-250.44 1018.3,-285.66 1018.3,-285.66 1018.3,-291.66 1012.3,-297.66 1006.3,-297.66"/>
<text xml:space="preserve" text-anchor="middle" x="884.59" y="-275.95" font-family="Helvetica,sans-Serif" font-size="13.00">Digital Core original notification intent</text>
<text xml:space="preserve" text-anchor="middle" x="884.59" y="-262.45" font-family="Helvetica,sans-Serif" font-size="13.00">Frozen event coordinates</text>
<text xml:space="preserve" text-anchor="middle" x="884.59" y="-248.95" font-family="Helvetica,sans-Serif" font-size="13.00">No buyer/address supplied by a browser</text>
</g>
<!-- finance&#45;&gt;digital -->
<g id="edge4" class="edge">
<title>finance&#45;&gt;digital</title>
<path fill="none" stroke="#475569" d="M1039.96,-357.29C1035.47,-344.96 1028.64,-331.25 1018.59,-321.66 1010.73,-314.17 1001.68,-307.71 992.07,-302.14"/>
<polygon fill="#475569" stroke="#475569" points="993.27,-300 985.95,-298.78 990.91,-304.3 993.27,-300"/>
<text xml:space="preserve" text-anchor="middle" x="1080.04" y="-323.21" font-family="Helvetica,sans-Serif" font-size="11.00">Only committed result</text>
</g>
<!-- digital&#45;&gt;recipient -->
<g id="edge5" class="edge">
<title>digital&#45;&gt;recipient</title>
<path fill="none" stroke="#475569" d="M787.68,-298.08C750.19,-309.27 706.91,-322.12 667.59,-333.66 644.05,-340.57 618.78,-347.91 594.79,-354.86"/>
<polygon fill="#475569" stroke="#475569" points="594.21,-352.47 588.16,-356.77 595.57,-357.18 594.21,-352.47"/>
<text xml:space="preserve" text-anchor="middle" x="775.13" y="-323.21" font-family="Helvetica,sans-Serif" font-size="11.00">Exact original event + channel</text>
</g>
<!-- comms -->
<g id="node8" class="node">
<title>comms</title>
<path fill="#ffe4e6" stroke="#64748b" d="M1014.55,-178.44C1014.55,-178.44 754.62,-178.44 754.62,-178.44 748.62,-178.44 742.62,-172.44 742.62,-166.44 742.62,-166.44 742.62,-131.22 742.62,-131.22 742.62,-125.22 748.62,-119.22 754.62,-119.22 754.62,-119.22 1014.55,-119.22 1014.55,-119.22 1020.55,-119.22 1026.55,-125.22 1026.55,-131.22 1026.55,-131.22 1026.55,-166.44 1026.55,-166.44 1026.55,-172.44 1020.55,-178.44 1014.55,-178.44"/>
<text xml:space="preserve" text-anchor="middle" x="884.59" y="-156.73" font-family="Helvetica,sans-Serif" font-size="13.00">Communication intent / templates / provider</text>
<text xml:space="preserve" text-anchor="middle" x="884.59" y="-143.23" font-family="Helvetica,sans-Serif" font-size="13.00">Layered HTML/text/SMS resources</text>
<text xml:space="preserve" text-anchor="middle" x="884.59" y="-129.73" font-family="Helvetica,sans-Serif" font-size="13.00">Durable status and original&#45;command retry</text>
</g>
<!-- digital&#45;&gt;comms -->
<g id="edge11" class="edge">
<title>digital&#45;&gt;comms</title>
<path fill="none" stroke="#475569" d="M884.59,-238.07C884.59,-222.72 884.59,-203.68 884.59,-187.22"/>
<polygon fill="#475569" stroke="#475569" points="887.04,-187.39 884.59,-180.39 882.14,-187.39 887.04,-187.39"/>
<text xml:space="preserve" text-anchor="middle" x="982.84" y="-203.99" font-family="Helvetica,sans-Serif" font-size="11.00">Frozen original communication command</text>
</g>
<!-- recipient&#45;&gt;digital -->
<g id="edge10" class="edge">
<title>recipient&#45;&gt;digital</title>
<path fill="none" stroke="#475569" d="M627.58,-379.64C715.42,-372.98 818,-359.75 853.59,-333.66 863.03,-326.73 869.72,-316.16 874.41,-305.57"/>
<polygon fill="#475569" stroke="#475569" points="876.59,-306.71 876.91,-299.3 872.04,-304.89 876.59,-306.71"/>
<text xml:space="preserve" text-anchor="middle" x="930.79" y="-323.21" font-family="Helvetica,sans-Serif" font-size="11.00">Bound private recipient only</text>
</g>
<!-- source -->
<g id="node7" class="node">
<title>source</title>
<path fill="#e0f2fe" stroke="#64748b" d="M438.05,-297.66C438.05,-297.66 175.13,-297.66 175.13,-297.66 169.12,-297.66 163.13,-291.66 163.13,-285.66 163.13,-285.66 163.13,-250.44 163.13,-250.44 163.13,-244.44 169.13,-238.44 175.13,-238.44 175.13,-238.44 438.05,-238.44 438.05,-238.44 444.05,-238.44 450.05,-244.44 450.05,-250.44 450.05,-250.44 450.05,-285.66 450.05,-285.66 450.05,-291.66 444.05,-297.66 438.05,-297.66"/>
<text xml:space="preserve" text-anchor="middle" x="306.59" y="-275.95" font-family="Helvetica,sans-Serif" font-size="13.00">Digital Core source callback</text>
<text xml:space="preserve" text-anchor="middle" x="306.59" y="-262.45" font-family="Helvetica,sans-Serif" font-size="13.00">Rereads committed owner evidence</text>
<text xml:space="preserve" text-anchor="middle" x="306.59" y="-248.95" font-family="Helvetica,sans-Serif" font-size="13.00">Same tenant, enterprise, channel and event</text>
</g>
<!-- recipient&#45;&gt;source -->
<g id="edge6" class="edge">
<title>recipient&#45;&gt;source</title>
<path fill="none" stroke="#475569" d="M343.49,-364.79C250.77,-350.69 146.7,-334.66 145.84,-333.66 131.58,-317.03 138.45,-304.63 155.57,-295.4"/>
<polygon fill="#475569" stroke="#475569" points="156.28,-297.78 161.54,-292.55 154.17,-293.36 156.28,-297.78"/>
<text xml:space="preserve" text-anchor="middle" x="210.71" y="-323.21" font-family="Helvetica,sans-Serif" font-size="11.00">Independent financial proof</text>
</g>
<!-- recipient&#45;&gt;source -->
<g id="edge9" class="edge">
<title>recipient&#45;&gt;source</title>
<path fill="none" stroke="#475569" stroke-dasharray="5,2" d="M344.01,-357.28C324.1,-350.52 308.1,-342.62 301.34,-333.66 295.52,-325.95 294.19,-316.14 295,-306.51"/>
<polygon fill="#475569" stroke="#475569" points="297.41,-306.93 295.98,-299.65 292.56,-306.23 297.41,-306.93"/>
<text xml:space="preserve" text-anchor="middle" x="375.96" y="-323.21" font-family="Helvetica,sans-Serif" font-size="11.00">Reread after contact admission</text>
</g>
<!-- source&#45;&gt;recipient -->
<g id="edge7" class="edge">
<title>source&#45;&gt;recipient</title>
<path fill="none" stroke="#475569" d="M421.54,-298.1C434.27,-304.47 446.32,-312.23 456.59,-321.66 464.81,-329.22 470.85,-339.55 475.22,-349.73"/>
<polygon fill="#475569" stroke="#475569" points="472.85,-350.41 477.69,-356.03 477.41,-348.62 472.85,-350.41"/>
<text xml:space="preserve" text-anchor="middle" x="563.92" y="-323.21" font-family="Helvetica,sans-Serif" font-size="11.00">Current stored buyer; no arbitrary lookup</text>
</g>
<!-- operator -->
<g id="node9" class="node">
<title>operator</title>
<path fill="#dcfce7" stroke="#64748b" d="M846.05,-59.22C846.05,-59.22 619.12,-59.22 619.12,-59.22 613.12,-59.22 607.12,-53.22 607.12,-47.22 607.12,-47.22 607.12,-12 607.12,-12 607.12,-6 613.12,0 619.12,0 619.12,0 846.05,0 846.05,0 852.05,0 858.05,-6 858.05,-12 858.05,-12 858.05,-47.22 858.05,-47.22 858.05,-53.22 852.05,-59.22 846.05,-59.22"/>
<text xml:space="preserve" text-anchor="middle" x="732.59" y="-37.51" font-family="Helvetica,sans-Serif" font-size="13.00">Axis inspection</text>
<text xml:space="preserve" text-anchor="middle" x="732.59" y="-24.01" font-family="Helvetica,sans-Serif" font-size="13.00">Read status first; retry is separate</text>
<text xml:space="preserve" text-anchor="middle" x="732.59" y="-10.51" font-family="Helvetica,sans-Serif" font-size="13.00">Mail state never compensates finance</text>
</g>
<!-- comms&#45;&gt;operator -->
<g id="edge12" class="edge">
<title>comms&#45;&gt;operator</title>
<path fill="none" stroke="#475569" d="M757.02,-118.85C747.4,-112.46 738.83,-104.68 732.09,-95.22 726.49,-87.38 724.71,-77.53 724.81,-67.9"/>
<polygon fill="#475569" stroke="#475569" points="727.24,-68.2 725.23,-61.07 722.35,-67.9 727.24,-68.2"/>
<text xml:space="preserve" text-anchor="middle" x="792.84" y="-84.77" font-family="Helvetica,sans-Serif" font-size="11.00">Scoped durable evidence</text>
</g>
<!-- gate -->
<g id="node10" class="node">
<title>gate</title>
<polygon fill="#fef3c7" stroke="#64748b" points="1298.17,-59.22 883,-59.22 883,0 1304.17,0 1304.17,-53.22 1298.17,-59.22"/>
<polyline fill="none" stroke="#64748b" points="1298.17,-59.22 1298.17,-53.22"/>
<polyline fill="none" stroke="#64748b" points="1304.17,-53.22 1298.17,-53.22"/>
<text xml:space="preserve" text-anchor="middle" x="1093.59" y="-37.51" font-family="Helvetica,sans-Serif" font-size="13.00">SOURCE is not installed acceptance</text>
<text xml:space="preserve" text-anchor="middle" x="1093.59" y="-24.01" font-family="Helvetica,sans-Serif" font-size="13.00">Qualification remains OFF; approved policy, contacts, sender, TLS,</text>
<text xml:space="preserve" text-anchor="middle" x="1093.59" y="-10.51" font-family="Helvetica,sans-Serif" font-size="13.00">private capture and joint end&#45;to&#45;end evidence are required.</text>
</g>
<!-- comms&#45;&gt;gate -->
<!-- operator&#45;&gt;comms -->
<g id="edge13" class="edge">
<title>operator&#45;&gt;comms</title>
<path fill="none" stroke="#475569" stroke-dasharray="5,2" d="M822.57,-59.57C834.61,-66.05 846.06,-73.86 855.59,-83.22 863.48,-90.98 869.41,-101.27 873.78,-111.36"/>
<polygon fill="#475569" stroke="#475569" points="871.39,-111.99 876.26,-117.58 875.95,-110.17 871.39,-111.99"/>
<text xml:space="preserve" text-anchor="middle" x="923.68" y="-84.77" font-family="Helvetica,sans-Serif" font-size="11.00">Explicit eligible retry only</text>
</g>
</g>
</svg>
